<?xml version="1.0" encoding="UTF-8" standalone="no"?>
<!DOCTYPE svg PUBLIC "-//W3C//DTD SVG 1.1//EN"
  "http://www.w3.org/Graphics/SVG/1.1/DTD/svg11.dtd">
<!-- Generated by graphviz version 2.40.1 (20161225.0304)
 -->
<!-- Title: Person Pages: 1 -->
<svg width="724pt" height="216pt"
     viewBox="0.00 0.00 723.95 216.00" xmlns="http://www.w3.org/2000/svg">
  <g id="graph0" class="graph" transform="scale(1 1) rotate(0) translate(4 212)">
    <title>Person</title>
    <polygon fill="#ffffff" stroke="transparent" points="-4,4 -4,-212 719.9534,-212 719.9534,4 -4,4"/>
    <!-- person -->
    <g id="node1" class="node">
      <title>person</title>
      <ellipse fill="none" stroke="#ff0000" cx="338.7693" cy="-190" rx="33.8683" ry="18"/>
      <text text-anchor="middle" x="338.7693" y="-185.8" font-family="Times,serif" font-size="14.00" fill="#000000">person</text>
    </g>
    <!-- person_name -->
    <g id="node2" class="node">
      <title>person_name</title>
      <ellipse fill="none" stroke="#ff0000" cx="212.7693" cy="-104" rx="57.0133" ry="18"/>
      <text text-anchor="middle" x="212.7693" y="-99.8" font-family="Times,serif" font-size="14.00" fill="#000000">person_name</text>
    </g>
    <!-- person&#45;&gt;person_name -->
    <g id="edge1" class="edge">
      <title>person&#45;&gt;person_name</title>
      <path fill="none" stroke="#000000" d="M315.6198,-176.8915C304.3295,-170.3015 290.657,-162.0258 278.7829,-154 266.3225,-145.5779 253.0226,-135.6899 241.65,-126.9403"/>
      <polygon fill="#000000" stroke="#000000" points="243.7948,-124.1745 233.7491,-120.8077 239.5026,-129.7042 243.7948,-124.1745"/>
      <text text-anchor="middle" x="306.7624" y="-142.8" font-family="Times,serif" font-size="14.00" fill="#000000">validation</text>
    </g>
    <!-- person_age -->
    <g id="node3" class="node">
      <title>person_age</title>
      <ellipse fill="none" stroke="#ff0000" cx="338.7693" cy="-104" rx="50.2551" ry="18"/>
      <text text-anchor="middle" x="338.7693" y="-99.8" font-family="Times,serif" font-size="14.00" fill="#000000">person_age</text>
    </g>
    <!-- person&#45;&gt;person_age -->
    <g id="edge2" class="edge">
      <title>person&#45;&gt;person_age</title>
      <path fill="none" stroke="#000000" d="M338.7693,-171.7616C338.7693,-160.3597 338.7693,-145.4342 338.7693,-132.494"/>
      <polygon fill="#000000" stroke="#000000" points="342.2694,-132.2121 338.7693,-122.2121 335.2694,-132.2121 342.2694,-132.2121"/>
      <text text-anchor="middle" x="366.7624" y="-142.8" font-family="Times,serif" font-size="14.00" fill="#000000">validation</text>
    </g>
    <!-- person_address -->
    <g id="node4" class="node">
      <title>person_address</title>
      <ellipse fill="none" stroke="#ff0000" cx="471.7693" cy="-104" rx="64.7545" ry="18"/>
      <text text-anchor="middle" x="471.7693" y="-99.8" font-family="Times,serif" font-size="14.00" fill="#000000">person_address</text>
    </g>
    <!-- person&#45;&gt;person_address -->
    <g id="edge3" class="edge">
      <title>person&#45;&gt;person_address</title>
      <path fill="none" stroke="#000000" d="M361.7604,-176.6433C373.0145,-169.9946 386.7048,-161.7411 398.7693,-154 412.3203,-145.3051 427.0119,-135.3486 439.6386,-126.621"/>
      <polygon fill="#000000" stroke="#000000" points="441.7943,-129.3852 448.0109,-120.8059 437.801,-123.6359 441.7943,-129.3852"/>
      <text text-anchor="middle" x="446.7624" y="-142.8" font-family="Times,serif" font-size="14.00" fill="#000000">validation</text>
    </g>
    <!-- null_check -->
    <g id="node5" class="node">
      <title>null_check</title>
      <ellipse fill="none" stroke="#0000ff" cx="470.7693" cy="-18" rx="48.8101" ry="18"/>
      <text text-anchor="middle" x="470.7693" y="-13.8" font-family="Times,serif" font-size="14.00" fill="#000000">null_check</text>
    </g>
    <!-- person_name&#45;&gt;null_check -->
    <g id="edge4" class="edge">
      <title>person_name&#45;&gt;null_check</title>
      <path fill="none" stroke="#000000"
            d="M217.5625,-85.7757C221.4622,-74.7208 228.1457,-61.3667 239.0241,-54 271.1646,-32.2348 374.7424,-43.7906 412.7693,-36 416.8362,-35.1668 421.0242,-34.1641 425.1997,-33.0637"/>
      <polygon fill="#000000" stroke="#000000" points="426.1755,-36.4251 434.8575,-30.3527 424.2837,-29.6856 426.1755,-36.4251"/>
      <text text-anchor="middle" x="268.1418" y="-56.8" font-family="Times,serif" font-size="14.00" fill="#000000">predicates</text>
    </g>
    <!-- object_equals_check -->
    <g id="node6" class="node">
      <title>object_equals_check</title>
      <ellipse fill="none" stroke="#0000ff" cx="83.7693" cy="-18" rx="83.5392" ry="18"/>
      <text text-anchor="middle" x="83.7693" y="-13.8" font-family="Times,serif" font-size="14.00" fill="#000000">object_equals_check</text>
    </g>
    <!-- person_name&#45;&gt;object_equals_check -->
    <g id="edge5" class="edge">
      <title>person_name&#45;&gt;object_equals_check</title>
      <path fill="none" stroke="#000000" d="M176.1717,-90.1085C162.6892,-84.2181 147.6398,-76.6926 135.0241,-68 124.7317,-60.9081 114.6176,-51.674 106.1294,-43.0744"/>
      <polygon fill="#000000" stroke="#000000" points="108.5661,-40.5584 99.125,-35.7504 103.5072,-45.3965 108.5661,-40.5584"/>
      <text text-anchor="middle" x="164.1418" y="-56.8" font-family="Times,serif" font-size="14.00" fill="#000000">predicates</text>
    </g>
    <!-- person_age&#45;&gt;null_check -->
    <g id="edge6" class="edge">
      <title>person_age&#45;&gt;null_check</title>
      <path fill="none" stroke="#000000" d="M360.9323,-87.7889C374.8458,-77.7776 393.2666,-64.8223 410.0241,-54 418.1162,-48.774 426.9637,-43.3645 435.3406,-38.3764"/>
      <polygon fill="#000000" stroke="#000000" points="437.3526,-41.2532 444.1876,-33.1579 433.7961,-35.2239 437.3526,-41.2532"/>
      <text text-anchor="middle" x="438.1418" y="-56.8" font-family="Times,serif" font-size="14.00" fill="#000000">predicates</text>
    </g>
    <!-- number_bigger_than_check -->
    <g id="node7" class="node">
      <title>number_bigger_than_check</title>
      <ellipse fill="none" stroke="#0000ff" cx="294.7693" cy="-18" rx="108.646" ry="18"/>
      <text text-anchor="middle" x="294.7693" y="-13.8" font-family="Times,serif" font-size="14.00" fill="#000000">number_bigger_than_check</text>
    </g>
    <!-- person_age&#45;&gt;number_bigger_than_check -->
    <g id="edge7" class="edge">
      <title>person_age&#45;&gt;number_bigger_than_check</title>
      <path fill="none" stroke="#000000" d="M319.4271,-87.2236C314.0245,-81.6168 308.6473,-74.999 305.0241,-68 301.5908,-61.3676 299.3066,-53.6829 297.787,-46.3576"/>
      <polygon fill="#000000" stroke="#000000" points="301.2203,-45.6682 296.1079,-36.3885 294.3175,-46.8309 301.2203,-45.6682"/>
      <text text-anchor="middle" x="333.1418" y="-56.8" font-family="Times,serif" font-size="14.00" fill="#000000">predicates</text>
    </g>
    <!-- person_address&#45;&gt;null_check -->
    <g id="edge8" class="edge">
      <title>person_address&#45;&gt;null_check</title>
      <path fill="none" stroke="#000000" d="M471.5572,-85.7616C471.4246,-74.3597 471.2511,-59.4342 471.1006,-46.494"/>
      <polygon fill="#000000" stroke="#000000" points="474.5972,-46.1707 470.981,-36.2121 467.5976,-46.2522 474.5972,-46.1707"/>
      <text text-anchor="middle" x="499.1418" y="-56.8" font-family="Times,serif" font-size="14.00" fill="#000000">predicates</text>
    </g>
    <!-- string_contains_check -->
    <g id="node8" class="node">
      <title>string_contains_check</title>
      <ellipse fill="none" stroke="#0000ff" cx="626.7693" cy="-18" rx="89.3687" ry="18"/>
      <text text-anchor="middle" x="626.7693" y="-13.8" font-family="Times,serif" font-size="14.00" fill="#000000">string_contains_check</text>
    </g>
    <!-- person_address&#45;&gt;string_contains_check -->
    <g id="edge9" class="edge">
      <title>person_address&#45;&gt;string_contains_check</title>
      <path fill="none" stroke="#000000" d="M500.9236,-87.8241C525.3479,-74.2725 560.4387,-54.8027 587.364,-39.8636"/>
      <polygon fill="#000000" stroke="#000000" points="589.1088,-42.8982 596.1549,-34.986 585.7126,-36.7772 589.1088,-42.8982"/>
      <text text-anchor="middle" x="586.1418" y="-56.8" font-family="Times,serif" font-size="14.00" fill="#000000">predicates</text>
    </g>
  </g>
</svg>
