<?xml version="1.0" encoding="UTF-8" standalone="no"?>
<!DOCTYPE svg PUBLIC "-//W3C//DTD SVG 1.1//EN"
  "http://www.w3.org/Graphics/SVG/1.1/DTD/svg11.dtd">
<!-- Generated by graphviz version 2.40.1 (20161225.0304)
 -->
<!-- Title: Person Pages: 1 -->
<svg width="724pt" height="216pt"
     viewBox="0.00 0.00 723.95 216.00" xmlns="http://www.w3.org/2000/svg">
  <g id="graph0" class="graph" transform="scale(1 1) rotate(0) translate(4 212)">
    <title>Person</title>
    <polygon fill="#ffffff" stroke="transparent" points="-4,4 -4,-212 719.9534,-212 719.9534,4 -4,4"/>
    <!-- person -->
    <g id="node1" class="node">
      <title>person</title>
      <ellipse fill="none" stroke="#ff0000" cx="340.7693" cy="-190" rx="33.8683" ry="18"/>
      <text text-anchor="middle" x="340.7693" y="-185.8" font-family="Times,serif" font-size="14.00" fill="#000000">person</text>
    </g>
    <!-- person_name -->
    <g id="node2" class="node">
      <title>person_name</title>
      <ellipse fill="none" stroke="#ff0000" cx="214.7693" cy="-104" rx="57.0133" ry="18"/>
      <text text-anchor="middle" x="214.7693" y="-99.8" font-family="Times,serif" font-size="14.00" fill="#000000">person_name</text>
    </g>
    <!-- person&#45;&gt;person_name -->
    <g id="edge1" class="edge">
      <title>person&#45;&gt;person_name</title>
      <path fill="none" stroke="#000000" d="M317.6198,-176.8915C306.3295,-170.3015 292.657,-162.0258 280.7829,-154 268.3225,-145.5779 255.0226,-135.6899 243.65,-126.9403"/>
      <polygon fill="#000000" stroke="#000000" points="245.7948,-124.1745 235.7491,-120.8077 241.5026,-129.7042 245.7948,-124.1745"/>
      <text text-anchor="middle" x="308.7624" y="-142.8" font-family="Times,serif" font-size="14.00" fill="#000000">validation</text>
    </g>
    <!-- person_age -->
    <g id="node3" class="node">
      <title>person_age</title>
      <ellipse fill="none" stroke="#ff0000" cx="340.7693" cy="-104" rx="50.2551" ry="18"/>
      <text text-anchor="middle" x="340.7693" y="-99.8" font-family="Times,serif" font-size="14.00" fill="#000000">person_age</text>
    </g>
    <!-- person&#45;&gt;person_age -->
    <g id="edge2" class="edge">
      <title>person&#45;&gt;person_age</title>
      <path fill="none" stroke="#000000" d="M340.7693,-171.7616C340.7693,-160.3597 340.7693,-145.4342 340.7693,-132.494"/>
      <polygon fill="#000000" stroke="#000000" points="344.2694,-132.2121 340.7693,-122.2121 337.2694,-132.2121 344.2694,-132.2121"/>
      <text text-anchor="middle" x="368.7624" y="-142.8" font-family="Times,serif" font-size="14.00" fill="#000000">validation</text>
    </g>
    <!-- person_address -->
    <g id="node4" class="node">
      <title>person_address</title>
      <ellipse fill="none" stroke="#ff0000" cx="473.7693" cy="-104" rx="64.7545" ry="18"/>
      <text text-anchor="middle" x="473.7693" y="-99.8" font-family="Times,serif" font-size="14.00" fill="#000000">person_address</text>
    </g>
    <!-- person&#45;&gt;person_address -->
    <g id="edge3" class="edge">
      <title>person&#45;&gt;person_address</title>
      <path fill="none" stroke="#000000" d="M363.7604,-176.6433C375.0145,-169.9946 388.7048,-161.7411 400.7693,-154 414.3203,-145.3051 429.0119,-135.3486 441.6386,-126.621"/>
      <polygon fill="#000000" stroke="#000000" points="443.7943,-129.3852 450.0109,-120.8059 439.801,-123.6359 443.7943,-129.3852"/>
      <text text-anchor="middle" x="448.7624" y="-142.8" font-family="Times,serif" font-size="14.00" fill="#000000">validation</text>
    </g>
    <!-- null_check -->
    <g id="node5" class="node">
      <title>null_check</title>
      <ellipse fill="none" stroke="#0000ff" cx="470.7693" cy="-18" rx="48.8101" ry="18"/>
      <text text-anchor="middle" x="470.7693" y="-13.8" font-family="Times,serif" font-size="14.00" fill="#000000">null_check</text>
    </g>
    <!-- person_name&#45;&gt;null_check -->
    <g id="edge4" class="edge">
      <title>person_name&#45;&gt;null_check</title>
      <path fill="none" stroke="#000000"
            d="M222.6121,-85.691C228.3678,-74.6022 237.3057,-61.2423 249.4724,-54 280.8432,-35.3263 377.0283,-43.4444 412.7693,-36 416.8334,-35.1535 421.0195,-34.1415 425.1938,-33.0351"/>
      <polygon fill="#000000" stroke="#000000" points="426.1733,-36.3955 434.8497,-30.3152 424.2753,-29.6577 426.1733,-36.3955"/>
      <text text-anchor="middle" x="274.4177" y="-56.8" font-family="Times,serif" font-size="14.00" fill="#000000">predicate</text>
    </g>
    <!-- object_equals_check -->
    <g id="node6" class="node">
      <title>object_equals_check</title>
      <ellipse fill="none" stroke="#0000ff" cx="83.7693" cy="-18" rx="83.5392" ry="18"/>
      <text text-anchor="middle" x="83.7693" y="-13.8" font-family="Times,serif" font-size="14.00" fill="#000000">object_equals_check</text>
    </g>
    <!-- person_name&#45;&gt;object_equals_check -->
    <g id="edge5" class="edge">
      <title>person_name&#45;&gt;object_equals_check</title>
      <path fill="none" stroke="#000000" d="M181.5915,-89.2114C169.2716,-83.2175 155.4004,-75.8555 143.4724,-68 131.9792,-60.4308 120.1868,-50.976 110.1502,-42.3318"/>
      <polygon fill="#000000" stroke="#000000" points="112.3391,-39.5959 102.5168,-35.6245 107.7187,-44.8544 112.3391,-39.5959"/>
      <text text-anchor="middle" x="169.4177" y="-56.8" font-family="Times,serif" font-size="14.00" fill="#000000">predicate</text>
    </g>
    <!-- person_age&#45;&gt;null_check -->
    <g id="edge6" class="edge">
      <title>person_age&#45;&gt;null_check</title>
      <path fill="none" stroke="#000000" d="M364.9166,-88.0256C385.6215,-74.3285 415.6267,-54.4789 438.4082,-39.4081"/>
      <polygon fill="#000000" stroke="#000000" points="440.3421,-42.3253 446.7512,-33.8888 436.4799,-36.4872 440.3421,-42.3253"/>
      <text text-anchor="middle" x="438.4177" y="-56.8" font-family="Times,serif" font-size="14.00" fill="#000000">predicate</text>
    </g>
    <!-- number_bigger_than_check -->
    <g id="node7" class="node">
      <title>number_bigger_than_check</title>
      <ellipse fill="none" stroke="#0000ff" cx="294.7693" cy="-18" rx="108.646" ry="18"/>
      <text text-anchor="middle" x="294.7693" y="-13.8" font-family="Times,serif" font-size="14.00" fill="#000000">number_bigger_than_check</text>
    </g>
    <!-- person_age&#45;&gt;number_bigger_than_check -->
    <g id="edge7" class="edge">
      <title>person_age&#45;&gt;number_bigger_than_check</title>
      <path fill="none" stroke="#000000" d="M324.5019,-86.6045C319.8328,-80.9725 315.0445,-74.4961 311.4724,-68 307.713,-61.1633 304.6051,-53.3352 302.1318,-45.9342"/>
      <polygon fill="#000000" stroke="#000000" points="305.4354,-44.7694 299.1507,-36.2398 298.7446,-46.8269 305.4354,-44.7694"/>
      <text text-anchor="middle" x="336.4177" y="-56.8" font-family="Times,serif" font-size="14.00" fill="#000000">predicate</text>
    </g>
    <!-- person_address&#45;&gt;null_check -->
    <g id="edge8" class="edge">
      <title>person_address&#45;&gt;null_check</title>
      <path fill="none" stroke="#000000" d="M473.133,-85.7616C472.7353,-74.3597 472.2146,-59.4342 471.7632,-46.494"/>
      <polygon fill="#000000" stroke="#000000" points="475.2512,-46.084 471.4046,-36.2121 468.2554,-46.3281 475.2512,-46.084"/>
      <text text-anchor="middle" x="497.4177" y="-56.8" font-family="Times,serif" font-size="14.00" fill="#000000">predicate</text>
    </g>
    <!-- string_contains_check -->
    <g id="node8" class="node">
      <title>string_contains_check</title>
      <ellipse fill="none" stroke="#0000ff" cx="626.7693" cy="-18" rx="89.3687" ry="18"/>
      <text text-anchor="middle" x="626.7693" y="-13.8" font-family="Times,serif" font-size="14.00" fill="#000000">string_contains_check</text>
    </g>
    <!-- person_address&#45;&gt;string_contains_check -->
    <g id="edge9" class="edge">
      <title>person_address&#45;&gt;string_contains_check</title>
      <path fill="none" stroke="#000000" d="M502.5474,-87.8241C526.5518,-74.3314 560.9936,-54.9719 587.5253,-40.0587"/>
      <polygon fill="#000000" stroke="#000000" points="589.5477,-42.937 596.55,-34.986 586.1177,-36.8349 589.5477,-42.937"/>
      <text text-anchor="middle" x="584.4177" y="-56.8" font-family="Times,serif" font-size="14.00" fill="#000000">predicate</text>
    </g>
  </g>
</svg>
